<svg width="56" height="15" viewBox="0 0 56 15" fill="none" xmlns="http://www.w3.org/2000/svg">
<g clip-path="url(#clip0_1_14)">
<g clip-path="url(#clip1_1_14)">
<path d="M0 1.74256C0 1.2375 0.168924 0.820833 0.506757 0.492561C0.84459 0.164273 1.28379 0.000137329 1.82432 0.000137329C2.35522 0.000137329 2.78474 0.161743 3.11293 0.484985C3.45077 0.818318 3.61969 1.25265 3.61969 1.78801C3.61969 2.27286 3.4556 2.67689 3.12741 3.00013C2.78958 3.33347 2.34556 3.50013 1.79537 3.50013H1.78089C1.25 3.50013 0.820468 3.33347 0.492278 3.00013C0.164088 2.6668 0 2.2476 0 1.74256ZM0.188224 15.0001V4.87892H3.40251V15.0001H0.188224ZM5.1834 15.0001H8.39768V9.34861C8.39768 8.99506 8.4363 8.72233 8.51351 8.53043C8.64864 8.18699 8.85376 7.89658 9.12886 7.65922C9.40396 7.42184 9.74903 7.30316 10.1641 7.30316C11.2452 7.30316 11.7857 8.06577 11.7857 9.59103V15.0001H15V9.19709C15 7.70214 14.6622 6.56831 13.9865 5.79558C13.3108 5.02286 12.418 4.63649 11.3079 4.63649C10.0627 4.63649 9.09266 5.1971 8.39768 6.31831V6.34861H8.3832L8.39768 6.31831V4.87892H5.1834C5.2027 5.20214 5.21236 6.20719 5.21236 7.89406C5.21236 9.58092 5.2027 11.9496 5.1834 15.0001Z" fill="white"/>
</g>
<path d="M30.45 3.325H31.625V1.3375C31.0561 1.27835 30.4845 1.24914 29.9125 1.25C28.2125 1.25 27.05 2.2875 27.05 4.1875V5.825H25.1312V8.05H27.05V13.75H29.35V8.05H31.2625L31.55 5.825H29.35V4.40625C29.35 3.75 29.525 3.325 30.45 3.325Z" fill="white"/>
<path d="M52.8375 3.4125C52.6892 3.4125 52.5442 3.45649 52.4208 3.5389C52.2975 3.62131 52.2014 3.73844 52.1446 3.87549C52.0878 4.01253 52.073 4.16333 52.1019 4.30882C52.1308 4.4543 52.2023 4.58794 52.3072 4.69283C52.4121 4.79772 52.5457 4.86915 52.6912 4.89809C52.8367 4.92703 52.9875 4.91218 53.1245 4.85541C53.2616 4.79864 53.3787 4.70251 53.4611 4.57918C53.5435 4.45584 53.5875 4.31084 53.5875 4.1625C53.5875 3.96359 53.5085 3.77282 53.3678 3.63217C53.2272 3.49152 53.0364 3.4125 52.8375 3.4125ZM55.7125 4.925C55.7003 4.40644 55.6032 3.89338 55.425 3.40625C55.2661 2.98946 55.0187 2.61205 54.7 2.3C54.3905 1.97964 54.0122 1.73386 53.5938 1.58125C53.1079 1.3976 52.5943 1.29826 52.075 1.2875C51.4125 1.25 51.2 1.25 49.5 1.25C47.8 1.25 47.5875 1.25 46.925 1.2875C46.4057 1.29826 45.8921 1.3976 45.4062 1.58125C44.9885 1.73541 44.6106 1.98098 44.3 2.3C43.9796 2.60949 43.7339 2.98777 43.5812 3.40625C43.3976 3.89209 43.2983 4.40572 43.2875 4.925C43.25 5.5875 43.25 5.8 43.25 7.5C43.25 9.2 43.25 9.4125 43.2875 10.075C43.2983 10.5943 43.3976 11.1079 43.5812 11.5938C43.7339 12.0122 43.9796 12.3905 44.3 12.7C44.6106 13.019 44.9885 13.2646 45.4062 13.4187C45.8921 13.6024 46.4057 13.7017 46.925 13.7125C47.5875 13.75 47.8 13.75 49.5 13.75C51.2 13.75 51.4125 13.75 52.075 13.7125C52.5943 13.7017 53.1079 13.6024 53.5938 13.4187C54.0122 13.2661 54.3905 13.0204 54.7 12.7C55.0202 12.3891 55.2677 12.0114 55.425 11.5938C55.6032 11.1066 55.7003 10.5936 55.7125 10.075C55.7125 9.4125 55.75 9.2 55.75 7.5C55.75 5.8 55.75 5.5875 55.7125 4.925ZM54.5875 10C54.5829 10.3967 54.5111 10.7898 54.375 11.1625C54.2752 11.4345 54.1149 11.6803 53.9062 11.8813C53.7035 12.0878 53.4583 12.2478 53.1875 12.35C52.8148 12.4861 52.4217 12.558 52.025 12.5625C51.4 12.5938 51.1687 12.6 49.525 12.6C47.8812 12.6 47.65 12.6 47.025 12.5625C46.6131 12.5702 46.2029 12.5068 45.8125 12.375C45.5536 12.2675 45.3196 12.108 45.125 11.9062C44.9176 11.7055 44.7593 11.4595 44.6625 11.1875C44.5099 10.8095 44.4253 10.4075 44.4125 10C44.4125 9.375 44.375 9.14375 44.375 7.5C44.375 5.85625 44.375 5.625 44.4125 5C44.4153 4.59441 44.4893 4.19247 44.6313 3.8125C44.7413 3.54869 44.9102 3.31354 45.125 3.125C45.3149 2.91011 45.5496 2.73943 45.8125 2.625C46.1935 2.48753 46.595 2.41567 47 2.4125C47.625 2.4125 47.8562 2.375 49.5 2.375C51.1438 2.375 51.375 2.375 52 2.4125C52.3967 2.41705 52.7898 2.4889 53.1625 2.625C53.4465 2.73041 53.7014 2.90178 53.9062 3.125C54.1111 3.31699 54.2711 3.55171 54.375 3.8125C54.5139 4.19308 54.5858 4.59486 54.5875 5C54.6187 5.625 54.625 5.85625 54.625 7.5C54.625 9.14375 54.6187 9.375 54.5875 10ZM49.5 4.29375C48.8661 4.29499 48.2469 4.48408 47.7204 4.83714C47.194 5.19019 46.784 5.69137 46.5423 6.27735C46.3006 6.86332 46.238 7.50779 46.3624 8.12933C46.4868 8.75087 46.7926 9.32158 47.2413 9.76936C47.6899 10.2171 48.2613 10.5219 48.883 10.6451C49.5048 10.7683 50.1492 10.7044 50.7347 10.4616C51.3202 10.2187 51.8205 9.80777 52.1726 9.28065C52.5246 8.75352 52.7125 8.13387 52.7125 7.5C52.7133 7.07819 52.6308 6.66038 52.4695 6.2706C52.3083 5.88082 52.0716 5.52676 51.773 5.22878C51.4745 4.93081 51.12 4.6948 50.7299 4.53433C50.3398 4.37386 49.9218 4.2921 49.5 4.29375ZM49.5 9.58125C49.0884 9.58125 48.686 9.45919 48.3437 9.2305C48.0015 9.00181 47.7347 8.67676 47.5772 8.29646C47.4197 7.91616 47.3784 7.49769 47.4587 7.09397C47.539 6.69025 47.7373 6.3194 48.0283 6.02833C48.3194 5.73727 48.6902 5.53905 49.094 5.45874C49.4977 5.37844 49.9162 5.41965 50.2965 5.57718C50.6768 5.7347 51.0018 6.00146 51.2305 6.34372C51.4592 6.68598 51.5813 7.08837 51.5813 7.5C51.5813 7.77331 51.5274 8.04395 51.4228 8.29646C51.3182 8.54897 51.1649 8.7784 50.9717 8.97167C50.7784 9.16493 50.549 9.31823 50.2965 9.42282C50.044 9.52742 49.7733 9.58125 49.5 9.58125Z" fill="white"/>
</g>
<defs>
<clipPath id="clip0_1_14">
<rect width="56" height="15" fill="white"/>
</clipPath>
<clipPath id="clip1_1_14">
<rect width="15" height="15" fill="white"/>
</clipPath>
</defs>
</svg>
